<?xml version="1.0" encoding="UTF-8" standalone="no"?>
<!-- Created with Inkscape (http://www.inkscape.org/) -->

<svg
   width="256"
   height="256"
   viewBox="0 0 67.733332 67.733333"
   version="1.1"
   id="svg5"
   inkscape:version="1.2 (1:1.2.1+202207142221+cd75a1ee6d)"
   sodipodi:docname="Favicon.svg"
   inkscape:export-filename="Favicon.png"
   inkscape:export-xdpi="96"
   inkscape:export-ydpi="96"
   xmlns:inkscape="http://www.inkscape.org/namespaces/inkscape"
   xmlns:sodipodi="http://sodipodi.sourceforge.net/DTD/sodipodi-0.dtd"
   xmlns="http://www.w3.org/2000/svg"
   xmlns:svg="http://www.w3.org/2000/svg">
  <sodipodi:namedview
     id="namedview7"
     pagecolor="#ffffff"
     bordercolor="#000000"
     borderopacity="0.25"
     inkscape:showpageshadow="2"
     inkscape:pageopacity="0.0"
     inkscape:pagecheckerboard="0"
     inkscape:deskcolor="#d1d1d1"
     inkscape:document-units="mm"
     showgrid="false"
     inkscape:zoom="1.5180135"
     inkscape:cx="50.394809"
     inkscape:cy="91.23766"
     inkscape:window-width="1920"
     inkscape:window-height="1032"
     inkscape:window-x="0"
     inkscape:window-y="0"
     inkscape:window-maximized="1"
     inkscape:current-layer="layer1" />
  <defs
     id="defs2">
    <inkscape:path-effect
       effect="powerclip"
       id="path-effect3264"
       is_visible="true"
       lpeversion="1"
       inverse="true"
       flatten="false"
       hide_clip="false"
       message="Use fill-rule evenodd on &lt;b&gt;fill and stroke&lt;/b&gt; dialog if no flatten result after convert clip to paths." />
    <clipPath
       clipPathUnits="userSpaceOnUse"
       id="clipPath3260">
      <ellipse
         style="display:none;fill:#ff0000;fill-opacity:1;stroke:none;stroke-width:1.12165"
         id="ellipse3262"
         cx="33.866665"
         cy="-1.7801921e-06"
         rx="67.73333"
         ry="33.866665"
         d="M 101.59999,-1.7801921e-6 A 67.73333,33.866665 0 0 1 33.866665,33.866663 67.73333,33.866665 0 0 1 -33.866665,-1.7801921e-6 67.73333,33.866665 0 0 1 33.866665,-33.866667 67.73333,33.866665 0 0 1 101.59999,-1.7801921e-6 Z" />
      <path
         id="lpe_path-effect3264"
         style="fill:#ff0000;fill-opacity:1;stroke:none;stroke-width:1.12165"
         class="powerclip"
         d="M -5,-5 H 72.73333 V 72.73333 H -5 Z M 101.59999,-1.7801921e-6 A 67.73333,33.866665 0 0 0 33.866665,-33.866667 67.73333,33.866665 0 0 0 -33.866665,-1.7801921e-6 67.73333,33.866665 0 0 0 33.866665,33.866663 67.73333,33.866665 0 0 0 101.59999,-1.7801921e-6 Z" />
    </clipPath>
    <clipPath
       clipPathUnits="userSpaceOnUse"
       id="clipPath3270">
      <circle
         style="fill:#ff0000;fill-opacity:1;stroke:none;stroke-width:1.27279"
         id="circle3272"
         cx="33.866665"
         cy="33.866665"
         r="32.173332" />
    </clipPath>
  </defs>
  <g
     inkscape:label="Layer 1"
     inkscape:groupmode="layer"
     id="layer1">
    <path
       style="fill:#e4cf01;fill-opacity:1;stroke:none;stroke-width:1.08878"
       id="path2416"
       clip-path="url(#clipPath3260)"
       inkscape:path-effect="#path-effect3264"
       sodipodi:type="arc"
       sodipodi:cx="33.866665"
       sodipodi:cy="33.866665"
       sodipodi:rx="33.866665"
       sodipodi:ry="33.866665"
       d="M 67.73333,33.866665 A 33.866665,33.866665 0 0 1 33.866665,67.73333 33.866665,33.866665 0 0 1 0,33.866665 33.866665,33.866665 0 0 1 33.866665,0 33.866665,33.866665 0 0 1 67.73333,33.866665 Z"
       transform="translate(0,-2.788)" />
    <ellipse
       style="fill:#e4cf01;fill-opacity:1;stroke:none;stroke-width:1.01229"
       id="ellipse2532"
       cx="33.866665"
       cy="-1.7801921e-06"
       rx="61.12933"
       ry="30.564665"
       clip-path="url(#clipPath3270)"
       transform="matrix(0.731025,0,0,0.731025,9.1092862,1.5502973)" />
  </g>
</svg>
